<?xml version="1.0" encoding="utf-8"?>
<!-- Generator: Adobe Illustrator 23.0.2, SVG Export Plug-In . SVG Version: 6.00 Build 0)  -->
<svg version="1.1" id="Layer_1" xmlns="http://www.w3.org/2000/svg" xmlns:xlink="http://www.w3.org/1999/xlink" x="0px" y="0px"
	 viewBox="0 0 30 30" style="enable-background:new 0 0 30 30;" xml:space="preserve">
<style type="text/css">
	.st0{fill:#FFD000;}
</style>
<g>
	<path class="st0" d="M24.2,9.4c0.1-0.7,0-1.5,0.1-2.3c0-0.8,0.1-1.7,0.1-2.5c0-0.3,0.1-0.5,0.2-0.7c0-0.2,0-0.4,0-0.6
		c-0.2,0-0.5,0.1-0.7,0.1c-1.2,0-2.4,0.3-3.6,0.4c0,0.4-0.1,0.8-0.1,1.2c-0.1,0.7-0.9,0.7-1.3,0.2c-0.2,0-0.4,0.1-0.6,0.1
		c-0.5,0.1-1.1,0.2-1.5-0.3c-0.4-0.4-0.2-1.1-0.2-1.6c0-0.2,0.1-0.4,0.3-0.6c0.1-0.1,0.3-0.2,0.5-0.2h0c0.1,0,0.3,0,0.4,0.1
		c0.1,0,0.2,0,0.3,0.1c-0.1-0.3,0.1-0.7,0.3-0.9c0.1,0,0.1-0.1,0.2-0.1c0-0.1-0.1-0.3-0.1-0.4c0.1-1.3-2.6-1.2-3.6-1.1V10
		c0.5-0.1,1.1-0.1,1.6-0.1c0.9,0.1,1.8,0.1,2.7,0c0.8,0,1.1,0.6,1.1,1.2c0.3,0,0.6,0.2,0.8,0.4c1.1-0.1,2.1-0.3,3.2-0.4
		c0-0.3,0-0.7,0-1C24.2,9.9,24.2,9.7,24.2,9.4z"/>
	<path class="st0" d="M10,17.5l1.1,1.2l2.5,5.1l0.2,2.5L12.9,28l-2,1.3c0,0-1.6,0-1.8,0c-0.1,0-1.7-0.8-1.7-0.8L6,26.9l-0.3-2.4
		l0.7-2l1-2.1l1-1.6l1-1.3L10,17.5z"/>
</g>
<g>
	<title>Water icon</title>
	<desc>Water icon for website, application, printing, document, poster design, etc.</desc>
	<g>
		<path d="M11,24.1c0.1,0.2,0.3,0.3,0.5,0.3c0.1,0,0.1,0,0.2,0c0.3-0.1,0.4-0.4,0.3-0.6c-0.2-0.6-0.5-1.2-0.8-1.7
			c-0.1-0.2-0.4-0.3-0.7-0.2c-0.2,0.1-0.3,0.4-0.2,0.7C10.5,23,10.8,23.5,11,24.1z"/>
		<path d="M24.3,6c0.3,0,0.5-0.2,0.5-0.5v-2c0-0.3-0.2-0.5-0.5-0.5h-4c-0.3,0-0.5,0.2-0.5,0.5V5h-3V3h1c0.6,0,1-0.4,1-1V1
			c0-0.6-0.4-1-1-1h-5c-0.6,0-1,0.4-1,1v1c0,0.6,0.4,1,1,1h1v2h-2C9.3,5,7.3,7,7.3,9.5v3H6.8c-0.3,0-0.5,0.2-0.5,0.5v2
			c0,0.3,0.2,0.5,0.5,0.5h6c0.3,0,0.5-0.2,0.5-0.5v-2c0-0.3-0.2-0.5-0.5-0.5h-0.5V10h6c0.3,0,0.5-0.2,0.5-0.5S18.5,9,18.3,9h-6.5
			c-0.3,0-0.5,0.2-0.5,0.5v3h-3v-3C8.3,7.6,9.8,6,11.8,6h8v5.5c0,0.3,0.2,0.5,0.5,0.5h4c0.3,0,0.5-0.2,0.5-0.5v-4
			c0-0.3-0.2-0.5-0.5-0.5c-0.3,0-0.5,0.2-0.5,0.5V11h-3V4h3v1.5C23.8,5.8,24,6,24.3,6z M12.3,13.5v1h-5v-1
			C7.3,13.5,12.3,13.5,12.3,13.5z M12.8,1h5v1h-5V1z M14.8,5V3h1v2H14.8z"/>
		<circle cx="22.3" cy="5.5" r="0.5"/>
		<circle cx="22.3" cy="7.5" r="0.5"/>
		<circle cx="22.3" cy="9.5" r="0.5"/>
		<circle cx="9.8" cy="20.5" r="0.5"/>
		<path d="M10.7,18.6c-0.2,0.2-0.3,0.5-0.1,0.7l0,0c1,1.3,2.7,4,2.7,6.2c0,1.9-1.6,3.5-3.5,3.5s-3.5-1.6-3.5-3.5
			c0-3.4,3.8-7.6,3.9-7.7c0.2-0.2,0.2-0.5,0-0.7c-0.2-0.2-0.5-0.2-0.7,0c0,0,0,0,0,0.1c-0.2,0.2-4.1,4.5-4.1,8.3
			c0,2.5,2,4.5,4.5,4.5s4.5-2,4.5-4.5c0-2.4-1.6-5-2.9-6.8C11.2,18.5,10.9,18.4,10.7,18.6z"/>
	</g>
</g>
</svg>
