<?xml version="1.0" encoding="utf-8"?>
<!-- Generator: Adobe Illustrator 22.0.0, SVG Export Plug-In . SVG Version: 6.00 Build 0)  -->
<svg version="1.1" id="Layer_1" xmlns="http://www.w3.org/2000/svg" xmlns:xlink="http://www.w3.org/1999/xlink" x="0px" y="0px"
	 viewBox="0 0 100 330" style="enable-background:new 0 0 100 330;" xml:space="preserve">
<style type="text/css">
	.st0{fill:#FFC100;}
	.st1{fill:#999999;}
</style>
<g>
	<g>
		<polygon class="st0" points="9.7,5.8 12.7,11.8 19.4,12.8 14.5,17.5 15.7,24.2 9.7,21 3.7,24.2 4.8,17.5 0,12.8 6.8,11.8 		"/>
	</g>
	<g>
		<polygon class="st0" points="29.9,5.8 32.9,11.8 39.6,12.8 34.6,17.5 35.8,24.2 29.9,21 23.9,24.2 24.9,17.5 20.2,12.8 26.9,11.8 
					"/>
	</g>
	<g>
		<polygon class="st0" points="50,5.8 53,11.8 59.7,12.8 54.8,17.5 56,24.2 50,21 44,24.2 45.1,17.5 40.3,12.8 47.1,11.8 		"/>
	</g>
	<g>
		<polygon class="st0" points="70.2,5.8 73.2,11.8 79.9,12.8 74.9,17.5 76.1,24.2 70.2,21 64.2,24.2 65.2,17.5 60.4,12.8 67.2,11.8 
					"/>
	</g>
	<g>
		<polygon class="st0" points="90.3,5.8 93.3,11.8 100,12.8 95.1,17.5 96.3,24.2 90.3,21 84.3,24.2 85.4,17.5 80.6,12.8 87.4,11.8 
					"/>
	</g>
</g>
<g>
	<g>
		<polygon class="st0" points="9.7,35.8 12.7,41.8 19.4,42.8 14.5,47.5 15.7,54.2 9.7,51 3.7,54.2 4.8,47.5 0,42.8 6.8,41.8 		"/>
	</g>
	<g>
		<polygon class="st0" points="29.9,35.8 32.9,41.8 39.6,42.8 34.6,47.5 35.8,54.2 29.9,51 23.9,54.2 24.9,47.5 20.2,42.8 
			26.9,41.8 		"/>
	</g>
	<g>
		<polygon class="st0" points="50,35.8 53,41.8 59.7,42.8 54.8,47.5 56,54.2 50,51 44,54.2 45.1,47.5 40.3,42.8 47.1,41.8 		"/>
	</g>
	<g>
		<polygon class="st0" points="70.2,35.8 73.2,41.8 79.9,42.8 74.9,47.5 76.1,54.2 70.2,51 64.2,54.2 65.2,47.5 60.4,42.8 
			67.2,41.8 		"/>
	</g>
	<g>
		<polygon class="st0" points="95.1,47.5 96.3,54.2 90.3,51 84.3,54.2 85.4,47.5 80.6,42.8 87.4,41.8 90.3,35.8 93.3,41.8 100,42.8 
					"/>
	</g>
	<polygon class="st1" points="95.1,47.5 96.3,54.2 90.3,51 90.3,35.8 93.3,41.8 100,42.8 	"/>
</g>
<g>
	<g>
		<polygon class="st0" points="9.7,65.8 12.7,71.8 19.4,72.8 14.5,77.5 15.7,84.2 9.7,81 3.7,84.2 4.8,77.5 0,72.8 6.8,71.8 		"/>
	</g>
	<g>
		<polygon class="st0" points="29.9,65.8 32.9,71.8 39.6,72.8 34.6,77.5 35.8,84.2 29.9,81 23.9,84.2 24.9,77.5 20.2,72.8 
			26.9,71.8 		"/>
	</g>
	<g>
		<polygon class="st0" points="50,65.8 53,71.8 59.7,72.8 54.8,77.5 56,84.2 50,81 44,84.2 45.1,77.5 40.3,72.8 47.1,71.8 		"/>
	</g>
	<g>
		<polygon class="st0" points="70.2,65.8 73.2,71.8 79.9,72.8 74.9,77.5 76.1,84.2 70.2,81 64.2,84.2 65.2,77.5 60.4,72.8 
			67.2,71.8 		"/>
	</g>
	<g>
		<polygon class="st1" points="90.3,65.8 93.3,71.8 100,72.8 95.1,77.5 96.3,84.2 90.3,81 84.3,84.2 85.4,77.5 80.6,72.8 87.4,71.8 
					"/>
	</g>
</g>
<g>
	<g>
		<polygon class="st0" points="9.7,95.8 12.7,101.8 19.4,102.8 14.5,107.5 15.7,114.2 9.7,111 3.7,114.2 4.8,107.5 0,102.8 
			6.8,101.8 		"/>
	</g>
	<g>
		<polygon class="st0" points="29.9,95.8 32.9,101.8 39.6,102.8 34.6,107.5 35.8,114.2 29.9,111 23.9,114.2 24.9,107.5 20.2,102.8 
			26.9,101.8 		"/>
	</g>
	<g>
		<polygon class="st0" points="50,95.8 53,101.8 59.7,102.8 54.8,107.5 56,114.2 50,111 44,114.2 45.1,107.5 40.3,102.8 47.1,101.8 
					"/>
	</g>
	<g>
		<polygon class="st0" points="74.9,107.5 76.1,114.2 70.1,111 64.2,114.2 65.2,107.5 60.4,102.8 67.2,101.8 70.1,95.8 73.2,101.8 
			79.8,102.8 		"/>
	</g>
	<g>
		<polygon class="st1" points="90.3,95.8 93.3,101.8 100,102.8 95.1,107.5 96.3,114.2 90.3,111 84.3,114.2 85.4,107.5 80.6,102.8 
			87.4,101.8 		"/>
	</g>
	<polygon class="st1" points="74.9,107.5 76.1,114.2 70.1,111 70.1,95.8 73.2,101.8 79.8,102.8 	"/>
</g>
<g>
	<g>
		<polygon class="st0" points="9.7,125.8 12.7,131.8 19.4,132.8 14.5,137.5 15.7,144.2 9.7,141 3.7,144.2 4.8,137.5 0,132.8 
			6.8,131.8 		"/>
	</g>
	<g>
		<polygon class="st0" points="29.9,125.8 32.9,131.8 39.6,132.8 34.6,137.5 35.8,144.2 29.9,141 23.9,144.2 24.9,137.5 20.2,132.8 
			26.9,131.8 		"/>
	</g>
	<g>
		<polygon class="st0" points="50,125.8 53,131.8 59.7,132.8 54.8,137.5 56,144.2 50,141 44,144.2 45.1,137.5 40.3,132.8 
			47.1,131.8 		"/>
	</g>
	<g>
		<polygon class="st1" points="70.2,125.8 73.2,131.8 79.9,132.8 74.9,137.5 76.1,144.2 70.2,141 64.2,144.2 65.2,137.5 60.4,132.8 
			67.2,131.8 		"/>
	</g>
	<g>
		<polygon class="st1" points="90.3,125.8 93.3,131.8 100,132.8 95.1,137.5 96.3,144.2 90.3,141 84.3,144.2 85.4,137.5 80.6,132.8 
			87.4,131.8 		"/>
	</g>
</g>
<g>
	<g>
		<polygon class="st0" points="9.7,155.8 12.7,161.8 19.4,162.8 14.5,167.5 15.7,174.2 9.7,171 3.7,174.2 4.8,167.5 0,162.8 
			6.8,161.8 		"/>
	</g>
	<g>
		<polygon class="st0" points="29.9,155.8 32.9,161.8 39.6,162.8 34.6,167.5 35.8,174.2 29.9,171 23.9,174.2 24.9,167.5 20.2,162.8 
			26.9,161.8 		"/>
	</g>
	<g>
		<polygon class="st0" points="54.8,167.5 56,174.2 50,171 44,174.2 45.1,167.5 40.3,162.8 47.1,161.8 50,155.8 53,161.8 
			59.7,162.8 		"/>
	</g>
	<g>
		<polygon class="st1" points="70.2,155.8 73.2,161.8 79.9,162.8 74.9,167.5 76.1,174.2 70.2,171 64.2,174.2 65.2,167.5 60.4,162.8 
			67.2,161.8 		"/>
	</g>
	<g>
		<polygon class="st1" points="90.3,155.8 93.3,161.8 100,162.8 95.1,167.5 96.3,174.2 90.3,171 84.3,174.2 85.4,167.5 80.6,162.8 
			87.4,161.8 		"/>
	</g>
	<polygon class="st1" points="54.8,167.5 56,174.2 50,171 50,155.8 53,161.8 59.7,162.8 	"/>
</g>
<g>
	<g>
		<polygon class="st0" points="9.7,185.8 12.7,191.8 19.4,192.8 14.5,197.5 15.7,204.2 9.7,201 3.7,204.2 4.8,197.5 0,192.8 
			6.8,191.8 		"/>
	</g>
	<g>
		<polygon class="st0" points="29.9,185.8 32.9,191.8 39.6,192.8 34.6,197.5 35.8,204.2 29.9,201 23.9,204.2 24.9,197.5 20.2,192.8 
			26.9,191.8 		"/>
	</g>
	<g>
		<polygon class="st1" points="50,185.8 53,191.8 59.7,192.8 54.8,197.5 56,204.2 50,201 44,204.2 45.1,197.5 40.3,192.8 
			47.1,191.8 		"/>
	</g>
	<g>
		<polygon class="st1" points="70.2,185.8 73.2,191.8 79.9,192.8 74.9,197.5 76.1,204.2 70.2,201 64.2,204.2 65.2,197.5 60.4,192.8 
			67.2,191.8 		"/>
	</g>
	<g>
		<polygon class="st1" points="90.3,185.8 93.3,191.8 100,192.8 95.1,197.5 96.3,204.2 90.3,201 84.3,204.2 85.4,197.5 80.6,192.8 
			87.4,191.8 		"/>
	</g>
</g>
<g>
	<g>
		<polygon class="st0" points="9.7,215.8 12.7,221.8 19.4,222.8 14.5,227.5 15.7,234.2 9.7,231 3.7,234.2 4.8,227.5 0,222.8 
			6.8,221.8 		"/>
	</g>
	<g>
		<polygon class="st0" points="34.6,227.5 35.8,234.2 29.8,231 23.9,234.2 24.9,227.5 20.1,222.8 26.9,221.8 29.8,215.8 32.9,221.8 
			39.5,222.8 		"/>
	</g>
	<g>
		<polygon class="st1" points="50,215.8 53,221.8 59.7,222.8 54.8,227.5 56,234.2 50,231 44,234.2 45.1,227.5 40.3,222.8 
			47.1,221.8 		"/>
	</g>
	<g>
		<polygon class="st1" points="70.2,215.8 73.2,221.8 79.9,222.8 74.9,227.5 76.1,234.2 70.2,231 64.2,234.2 65.2,227.5 60.4,222.8 
			67.2,221.8 		"/>
	</g>
	<g>
		<polygon class="st1" points="90.3,215.8 93.3,221.8 100,222.8 95.1,227.5 96.3,234.2 90.3,231 84.3,234.2 85.4,227.5 80.6,222.8 
			87.4,221.8 		"/>
	</g>
	<polygon class="st1" points="34.6,227.5 35.8,234.2 29.8,231 29.8,215.8 32.9,221.8 39.5,222.8 	"/>
</g>
<g>
	<g>
		<polygon class="st0" points="9.7,245.8 12.7,251.8 19.4,252.8 14.5,257.5 15.7,264.2 9.7,261 3.7,264.2 4.8,257.5 0,252.8 
			6.8,251.8 		"/>
	</g>
	<g>
		<polygon class="st1" points="29.9,245.8 32.9,251.8 39.6,252.8 34.6,257.5 35.8,264.2 29.9,261 23.9,264.2 24.9,257.5 20.2,252.8 
			26.9,251.8 		"/>
	</g>
	<g>
		<polygon class="st1" points="50,245.8 53,251.8 59.7,252.8 54.8,257.5 56,264.2 50,261 44,264.2 45.1,257.5 40.3,252.8 
			47.1,251.8 		"/>
	</g>
	<g>
		<polygon class="st1" points="70.2,245.8 73.2,251.8 79.9,252.8 74.9,257.5 76.1,264.2 70.2,261 64.2,264.2 65.2,257.5 60.4,252.8 
			67.2,251.8 		"/>
	</g>
	<g>
		<polygon class="st1" points="90.3,245.8 93.3,251.8 100,252.8 95.1,257.5 96.3,264.2 90.3,261 84.3,264.2 85.4,257.5 80.6,252.8 
			87.4,251.8 		"/>
	</g>
</g>
<g>
	<g>
		<polygon class="st0" points="14.5,287.5 15.7,294.2 9.7,291 3.7,294.2 4.8,287.5 0,282.8 6.8,281.8 9.7,275.8 12.7,281.8 
			19.4,282.8 		"/>
	</g>
	<g>
		<polygon class="st1" points="29.9,275.8 32.9,281.8 39.6,282.8 34.6,287.5 35.8,294.2 29.9,291 23.9,294.2 24.9,287.5 20.2,282.8 
			26.9,281.8 		"/>
	</g>
	<g>
		<polygon class="st1" points="50,275.8 53,281.8 59.7,282.8 54.8,287.5 56,294.2 50,291 44,294.2 45.1,287.5 40.3,282.8 
			47.1,281.8 		"/>
	</g>
	<g>
		<polygon class="st1" points="70.2,275.8 73.2,281.8 79.9,282.8 74.9,287.5 76.1,294.2 70.2,291 64.2,294.2 65.2,287.5 60.4,282.8 
			67.2,281.8 		"/>
	</g>
	<g>
		<polygon class="st1" points="90.3,275.8 93.3,281.8 100,282.8 95.1,287.5 96.3,294.2 90.3,291 84.3,294.2 85.4,287.5 80.6,282.8 
			87.4,281.8 		"/>
	</g>
	<polygon class="st1" points="14.5,287.5 15.7,294.2 9.7,291 9.7,275.8 12.7,281.8 19.4,282.8 	"/>
</g>
<g>
	<g>
		<polygon class="st1" points="9.7,305.8 12.7,311.8 19.4,312.8 14.5,317.5 15.7,324.2 9.7,321 3.7,324.2 4.8,317.5 0,312.8 
			6.8,311.8 		"/>
	</g>
	<g>
		<polygon class="st1" points="29.9,305.8 32.9,311.8 39.6,312.8 34.6,317.5 35.8,324.2 29.9,321 23.9,324.2 24.9,317.5 20.2,312.8 
			26.9,311.8 		"/>
	</g>
	<g>
		<polygon class="st1" points="50,305.8 53,311.8 59.7,312.8 54.8,317.5 56,324.2 50,321 44,324.2 45.1,317.5 40.3,312.8 
			47.1,311.8 		"/>
	</g>
	<g>
		<polygon class="st1" points="70.2,305.8 73.2,311.8 79.9,312.8 74.9,317.5 76.1,324.2 70.2,321 64.2,324.2 65.2,317.5 60.4,312.8 
			67.2,311.8 		"/>
	</g>
	<g>
		<polygon class="st1" points="90.3,305.8 93.3,311.8 100,312.8 95.1,317.5 96.3,324.2 90.3,321 84.3,324.2 85.4,317.5 80.6,312.8 
			87.4,311.8 		"/>
	</g>
</g>
</svg>
